<svg xmlns="http://www.w3.org/2000/svg" width="1914.39" height="2503.21" version="1" viewBox="0 0 1435.79 1877.41"><path fill="#0e76bc" d="M764.86 8l-2 3c-2 2.5-.9 2.06-5 2h-3c.62 1.08 1.18 1.78 2.4 3.65 1.9 2.85 1.13 3.85.13 5.85 0 2-1.6 5.5-1.6 9.5 0 3-1 8-1 11-1 4-1 5-8 8-9 5-12 5-15 3s-3-3 0-7c3-5 3-11 0-13-3-3-6-3-8-1-2.2.45-4 3-4 3-.6 1.33-1.3 3.53 0 7 0 1 1 3 2 4 3 5 1 8-5 9-5 0-8 3-9 8 0 4-10 20-12 21-1 0-3 0-4-1l-2-1v1c0 2 11 23 14 28 1 1 1 6 1 12 0 8 0 11 2 14 3 5 3 5 0 7-4 2-4 5 0 10 1 2 1.3 3.3 2 5 .6 1.7 1 3 2 4 1 2 1 3-1 10-4 9-5 11-15 21-4 4-7 8-7 8l-3 3-4 2v2c.3 1.7.8 2.83 2 4h-3v3h-1c-3 0-5 3-5 6 1 2-1 4-4 3-2 0-4 0-6 2-2.3 1.26-3 1.6-3 4-.3 7.1-6.5 21.16-1 25l2 1c-1.5 3.08 1.7 13.4-5 12-4.1-.24-8-1.97-12-2v2c-.7 2.37.1 7.1-2 5h-2l-1 4c-1 2-2 4-3 5l-1 2 2 3c0 2 2 3 3 3h1v1c0 2-4 3-6 2h-2v2l2 6h-7l1 2c1 1 2 2 3 2h2v1l-2 2-1 1 2 4 2 5h5c7-1 12 2 11 7 0 1-1 3-2 3v7h3c.4 3.7.5 8.05.5 10.36-.1 26.64-.6 40.52-.6 63.64-.1 3.1-.7 5.65-1 7-.4 1.35-2 2-2 2s-.5.5 1 2 2 7-1 9c-1 1-3 2-4 2h-2v1l2 2c2 3 1 6-2 9-5 5-6 12-2 21l2 5h-4c-3-1-3-1-5 1s-5 4-7 5c-3 2-5 4-5 5s-1 2-2 3c-2 2-4 7-5 14-1 8-1 7 0 14 0 5 0 6-2 10-3 4-4 5-11 8-58.8 31.12-117.6 79.02-149.5 127l-8.5 12-6.5-2 .2 4.6c0 1.72-.8 3.42-2 6.13-14.4 36.5-21.6 80.4-25.8 114.27-1 7-2 14-2 15l-1 1-1-1c-1-1-2-1-2-1h-1v2c-.8 5.15-1.6 22-4 27l-1 5c-3.9 1.65-9.7-2-12-2h-3v10c0 8 1 11 2 12 0 1 1 3 1 4v5c0 5-3 7-7 6-2-1-4-1-5-1h-2v1c2.7 3.4 3.2 10.54 2 13-2 6.52-8.5 10.57-13 15-23 17-32 35-26 56 3.9 15.67 10.5 20.62 17 35 1.6 27.9 1 57.97 1 84-1 0-5 2-11 5l-9 3-1-1c0-1-3-1-5-1h-3v3c-5.2-.1-8.7 1.8-11 3l-5 2 1 2v3l-12 7c-10 6-22 15-24 18-1 1-3 1-5 1-5 0-7 1-11 7l-3 4 2 3c2 5 2 6-4 11-15.6 11.63-26.4 26.1-33 42-2 5-2 21 1 28 2 6 9 16 18 27 5 7 6 9 8 17 1 5 2 9 2 10-1 1-2 1-4 1h-3l1 2c1 5.1.5 14.03 4 18h1v3c-1 31.17-1.9 64.94-4 95 0 2.8-.2 8.28-.5 14.7h947.5c-.4-32.6-2.9-65.03-3-97.7v-13c-.1-6.9 5.2-17.4 5-18l1-6h-7c1-4.4 1.9-8.77 4-13 1-2 3-7 5-9 7.8-9.08 11.8-11.48 19-27 7.2-15.52-2.2-46.66-18-60-4-4-10-9-15-12-5-4-9-7-10-8-1-2-1-6 1-9l1-3-5-5c-4-4-6-5-9-5-4 0-6-1-11-5-9-6-21-13-29-17-6-3-7-4-7-6 0-3-1-3-9-7-7-4-9-4-13-3h-5l1-88c0-1 1-3 3-5 1-1 5-7 8-12 7-14 9-26 4-39-3-10-14-23-25-31l-9-10c-3-4-3-4-2-11-.1-4.2 0 0 3-11h-1s-12.9 2.1-16-5c-2-5-2-6 1-9 1-2 1-3 0-10 0-6 0-8 1-9l1-2h-6l-5 1c-3.8-5.8-5.9-17.5-6-23v-6h-3l-1-6-2-10c-5.1-43.4-15.9-89.94-32-125v-5h-1l-7 2c-1-4-18-31-26-41-32.8-39-76.3-76.13-119-95-13-5-13-5-15-14-1-9-1-16 1-19 2-2 1-2.4 0-6-.6-3.15-2-5.1-2-8h-3c-2 0-6-2-11-5s-10.5-6.5-11-7c-2.1-.88-2.8-2.12-2-4 .7-1.88 2-4 3-6 3-7 2-11-3-16-3-3-3-11-1-15 3.2-4.6-3.5-9.43-7-13 .1-29.5-.8-57.56-.5-88-.9-2.6.5-4.07 4.5-4 4 1 13-7 13-11v-2h-3l-3-1v-2c0-1 2-5 3-6s3-1 5-1c3 0 7-5 5-8-1-1-1-3 0-3-.5-3.46-1.4-5.8-3-9h-2v-3l-2-1c-6 1-11 1-13 0-2 0-3-2-4-4-2-4-2-4-1-6l1-2-1-1c-1-1-1-2-1-3s0-2-1-2l-1-1-2 4c-2 5-4 5-6 1-2.6-3.35 1.9-3.68 2-6v-2h2v-1c-1-3 2-11 5-14l2-3-1-2c-7.2-2.72-13.2-13.92-19-17l-2-1v-2h2v-2c0-2-2.1-4.4-3-4-5.5 2.47-3.4 3.8-9.1-4.2L750.8 192c-4-5.65-11-17-11-20 0-1-.75-3.08-1-5-.22-1.92-.53-1.17 0-3 1-1 1.8-2.94 2.37-4.56.55-1.62 1.66-4.44 2.66-5.44 3-2 2-6-1-9-2-2-4-4-4-5 0 0 1-1 2-3l1-3c-1-1-2-3-2-11 0-5 0-16-1-23-1-13-2-31-1-36 1-1 3-3 5-4s6-4 9-6 6-3 6-3h1l1-4V36c-1-4-1-7 0-7 1-1 1-2 1-3v-2l2.13-1.3s1.4.62 2.4 1.62l2.5 1.68-.2-3.07c-.16-2.38-.88-2.5 1.4-4.04l2.8-1.9-3.05-1.5c-2.8-1.4-3.1-1.8-3.7-5.6zm-59 72h1v12c0 6 0 12-1 14l-1 3-4-8c-3-5-5-9-5-11 1-2 4-6 7-8zm5.36 375.9h19.05c16.54 54.42 55.88 113.3 109.94 157.33 165.9 135.14 195.5 331.6 13 488.35-7.4.33-11.6-4.7-9-14.4 102.8-93.47 126.7-195.8 88.9-269.72-37.3-73-106.6-123.27-202.7-173.7v548.7c-.4 78.8-71.6 155.38-169.3 155.38-64.7 0-106.7-31.13-106.7-93.57 0-81.65 79-155.86 169.3-155.86 39.3 0 69.6 12.4 87.7 34.7z"/><path d="M222.7 1574.27l16.05-45.63c.92-2.3 1.84-2.98 2.52-.7l14 42.9c2.3 7.33 2.06 8.25-2.53 8.25h-27.98c-4.13 0-3.44-1.2-2.06-4.9zm65.35 61.46c7.57 0 15.83 1.38 21.1 1.38 4.36 0 6.65-1.1 6.65-3.6 0-2.3-2.06-4.6-9.17-7.1-11.24-4.1-13.76-10.3-20.4-28.9l-30.28-85.5c-3.2-8.9-4.6-16.5-8.48-16.5-1.38 0-5.5 6.4-9.87 6.9-2.52.3-2.52 3.2-6.42 13.1l-35.08 97c-3.44 9.4-3.2 10.6-10.78 14-5.05 2.3-12.6 3.5-12.6 6.9 0 2.6 3.2 3.9 7.55 3.9 3.44 0 8.72-1.3 14.45-1.3 4.36 0 14.45 1.4 18.8 1.4 5.74 0 8.03-1.4 8.03-3.9 0-2.3-2.52-4.8-8.48-6.4-6.65-1.8-6.42-5.5-5.05-9.6l8.72-25c.9-2.3 2.52-2.5 3.67-2.5h38.3c1.9 0 3 .7 3.7 2.8l6.7 21.8c1.2 3.9 1.6 8.3-6.6 12.2-5 2.3-12.4 3.5-12.4 6.9 0 2.5 4.4 3.9 7.4 3.9 6.9 0 15.6-1.4 30.7-1.4zm100.1-73.38v43.34c0 10-10.33 17.6-22.94 17.6-10.5 0-16-10.3-16-21.4v-57.8c0-4.4 0-6.2-2.7-6.2-2.3 0-11.9 2.9-21.1 4.6-3.2.4-6.2 2.2-6.2 4.8 0 2.5 2.3 4.3 4.9 5.2 5.5 2.1 6.2 7.6 6.2 11.5v45.4c0 13.3 9.4 28 22.7 28 13.3 0 20.7-2.1 31-10.4 3-2.6 3.7-3.9 4.6.2.7 3.2.7 6.4 1.4 8.7.3 1.1 1.4 3.2 3.2 3.2 3.5 0 22.3-5.5 26.4-7.6 1.8-.9 4.1-2.8 4.1-5.8 0-1.6-1.8-3.7-2.9-3.7-1.8 0-6.6 1.4-9.6 1.4-2.3 0-3.7-.7-3.7-3V1544c0-4.34 0-6.2-2.8-6.2-2.3 0-17.4 2.54-25.7 3.7-3.2.47-6.6 3.2-6.6 5.74s2.5 3.9 5.3 4.37c6.5 1 10.8 4.2 10.8 10.6zm74.9-24.3c-16.07 0-29.37 13.06-29.37 28.66 0 11.5 8.95 18.6 19.27 25.7l11 7.8c5.5 4.1 10.32 6.4 10.32 16.5 0 6.9-6.65 11.5-13.53 11.5-7.56 0-14.67-2.5-17.65-8.7-3.3-7.1-7.8-9.2-10.1-9.2s-2.6 3.5-2.6 7.4c0 3.5 2.7 11.5 3.9 14.5 1.1 3 2.3 3.2 5.7 4.6 2.3.9 8.7 1.8 15.1 1.8 18.8 0 34.6-14 34.6-33.4 0-8-4.8-13.3-11-18.3l-18.7-14.3c-5.3-3.7-9.9-7.6-9.9-14 0-5.7 4.8-9.8 10.5-9.8 7.1 0 13.7 3.9 15.6 9.2 1.1 4.6 4.5 5.8 6.8 5.8 2.7 0 2.7-2.3 2.7-5 0-2-.5-8.7-1.2-11.2-.7-2.3-1.1-3-2.5-3.7-7.3-3-12.1-5.5-19.2-5.5zm74.25 100.43c13.75 0 26.13-11.23 26.13-16.5 0-2.3-1.15-3.22-3.44-3.22-2.3 0-8.1 4.13-16.6 4.13-8.1 0-12-5.1-12-21.1v-42.9c0-3.2.9-4.4 3.6-4.4h22.7c3.2 0 5.5-6 5.5-8.3 0-2.3-.9-5.3-4.6-5.3h-22.2c-3 0-5.1-1.2-5.1-3.5v-6.4c0-3.9-.5-5.8-3.2-5.8-3 0-11.7 8.7-14.9 11.4-5.8 4.8-15.4 11.2-15.4 14.4 0 2.3 5.2 3.2 7.3 3.2 8.5 0 7.2 1.1 7.2 3.2v54.6c0 19.5 11.2 26.1 24.7 26.1zm62.18-149.74c-6.88 0-12.6 5.5-12.6 12.38 0 7.1 5.5 12.84 12.6 12.84s12.6-5.73 12.6-12.84c0-6.88-5.72-12.38-12.6-12.38zm-8.25 78.65v44.4c0 5.7-2.53 12.8-8.72 14.7-6.1 1.8-10 3.6-10 5.9 0 2.3 2.1 4.6 8.1 4.6 5.1 0 15.8-1.4 20.4-1.4 3.7 0 15.2 1.4 20.2 1.4 6 0 7.8-2.3 7.8-4.6s-3.6-4.2-9.8-6c-6.2-1.9-8.7-9-8.7-14.7v-69c0-4.6 0-6.7-2.7-6.7-2.3 0-21.3 7.5-23.8 8.9-3 1.4-6.7 3.2-6.7 5.7s2.3 3.9 4.8 4.8c5.5 2 9.4 7.8 9.4 11.7zm143.87 44v-41.5c0-16.8-12.6-31.9-28.67-31.9-11.92 0-20.86 2.7-28.43 8.9-1.84 1.6-4.6 4.8-4.6 1.4v-5.8c0-4.4 0-6.4-2.74-6.4-2.3 0-21.1 7.5-23.85 8.9-2.9 1.4-6.6 3.2-6.6 5.7s2.3 3.9 4.8 4.8c5.5 2 9.4 7.8 9.4 11.7v44.5c0 5.7-2.5 12.8-8.7 14.6-6.2 1.8-8.9 3.7-8.9 5.9 0 2.3.9 4.6 6.9 4.6 5.1 0 15.9-1.4 20.4-1.4 3.7 0 11.7 1.4 16.8 1.4 6 0 6.7-2.3 6.7-4.6s-2.5-4.2-8.7-6c-4.3-1.4-5.3-8.9-5.3-14.7l.3-36.7c0-17.4 9.2-25.2 22.5-25.2 11.9 0 20 13.3 20 26.8v35.1c0 5.7-1.1 13.5-5.2 14.7-6.2 1.8-8.9 3.6-8.9 5.9 0 2.3.9 4.6 6.9 4.6 5 0 12.4-1.4 17-1.4 3.7 0 15.2 1.4 20.2 1.4 6 0 6.2-2.3 6.2-4.6s-2-4.2-8.2-6c-6.2-1.8-8.7-9.2-8.7-15.1zm162.6-114.2c-45.2 0-83.03 31.2-83.03 76.3 0 40.8 39.9 66.7 78.66 66.7 12.84 0 28.9-2.5 38.07-5.8 5.73-2.1 6.88-3.7 10.55-11.3 2.06-4.4 9.17-20 9.17-21.8 0-4.1-1.84-6.4-3.67-6.4-1.83 0-3.2.4-4.13 1.8-12.15 17.2-17.43 33.2-40.6 33.2-36.45 0-62.36-31.2-62.36-66.3 0-31.6 23.16-56.4 52.74-56.4 16.28 0 38.3 5.9 41.5 16 3 9.6 5.74 14.4 9.18 14.4 2.52 0 4.13-2.5 4.13-6.4 0-12.6-1.6-24.8-6.8-25.3-5.3-.4-25.9-9.2-43.3-9.2zm92.34-8.5c-6.88 0-12.6 5.5-12.6 12.4 0 7.1 5.5 12.8 12.6 12.8s12.6-5.8 12.6-12.9c0-6.9-5.72-12.4-12.6-12.4zm-8.25 78.6v44.4c0 5.7-2.6 12.8-8.8 14.7-6.2 1.8-10.1 3.6-10.1 5.9 0 2.3 2.1 4.6 8 4.6 5 0 15.8-1.4 20.4-1.4 3.7 0 15.1 1.4 20.2 1.4 5.9 0 7.8-2.3 7.8-4.6s-3.7-4.2-9.9-6-8.7-9-8.7-14.7v-69.1c0-4.6 0-6.6-2.8-6.6-2.3 0-21.4 7.5-23.9 8.9-3 1.4-6.7 3.2-6.7 5.7s2.3 3.9 4.8 4.8c5.5 2 9.4 7.8 9.4 11.7zm111-17.9c1.3.2 3.9 1.8 3.9 4.1 0 1.6-.5 4.8-2.3 9.4l-16.5 41.7c-.7 1.8-1.6 2.3-2.3 0l-18.8-49.3c-.9-2.3 0-5.3 1.1-5.5 5-1.6 7.8-3.5 7.8-5.8s-2.1-4.6-5.8-4.6c-3.5 0-13.1 1.4-16.5 1.4-3.5 0-11.3-1.4-14.7-1.4-3.7 0-5.6 2.3-5.6 4.6s4.1 4.1 7.5 5.3c3.4 1.1 6.6 8.5 8.9 14.4l25.4 66.7c1.4 3.9 3.4 9.1 5.7 9.1 4.1 0 10.5-21.8 14.4-31.5l18.1-45.8c3.2-8.1 7.3-12.2 9.8-13.1 3.4-1.1 7.8-3 7.8-5.3s-1.9-4.6-5.5-4.6c-3.5 0-7.6 1.3-11 1.3-3.5 0-9.2-1.4-12.7-1.4-3.7 0-5.7 2.3-5.7 4.53 0 2.3 3 4.6 6.4 5.3zm56.6-60.8c-6.9 0-12.7 5.5-12.7 12.4 0 7.1 5.5 12.8 12.6 12.8s12.6-5.8 12.6-12.9c0-6.9-5.8-12.4-12.6-12.4zm-8.3 78.6v44.4c0 5.7-2.6 12.8-8.7 14.6-6.2 1.8-10.1 3.7-10.1 6s2.1 4.6 8 4.6c5 0 15.8-1.4 20.4-1.4 3.7 0 15.1 1.4 20.2 1.4 5.9 0 7.8-2.3 7.8-4.6s-3.7-4.2-9.9-6c-6.2-1.8-8.7-8.9-8.7-14.7v-69c0-4.6 0-6.7-2.8-6.7-2.3 0-21.4 7.5-23.9 8.9-3 1.4-6.7 3.2-6.7 5.7s2.3 3.9 4.8 4.8c5.5 2 9.4 7.8 9.4 11.7zm87.4 71.1c22.4 0 35.7-11 35.7-17.7 0-2.3-1.2-3.3-3.5-3.3s-13.6 5.3-24.1 5.3c-19.5 0-28.5-21.6-28.5-41.7 0-15.2 9.6-32.4 23.4-32.4 4.8 0 7.8 4.1 11.7 8 5 5 10.7 8.2 14.9 8.2 5.2 0 9.6-3.5 9.6-9 0-3-3.2-6.9-7.6-10.6-3.7-3-10.8-7.6-26.9-7.6-26.4 0-46.3 26.14-46.3 53.9 0 24.3 16.7 46.54 41.3 46.54zM171 1738.7c9.64 3.2 14.45 7.55 9.18 23.4l-24.3 67.17c-1.13 3.44-1.8 3.2-3-.23l-27.5-73.16c-3.65-10.1 4.6-14.3 14.47-17.5 2.06-.7 3.44-1.84 3.44-3.9 0-2.75-4.6-4.13-8.1-4.13-7.8 0-16.3 1.15-24.3 1.15-8.3 0-9.2-1.16-18.2-1.16-3.5 0-8.1 1.4-8.1 4.13 0 2.05 1.4 3.2 3.7 3.9 9.6 3.43 12.6 11.9 16.5 22.46l1.3 4.16-23.1 64.2c-1.2 3.4-1.9 3.2-3-.3l-27.5-73.2c-3.7-10.1 4.6-14.2 14.4-17.5 2-.7 3.4-1.9 3.4-3.9 0-2.8-4.6-4.2-8.1-4.2-7.8 0-20.4 1.1-28.5 1.1-8.3 0-9.2-1.2-18.1-1.2-3.5 0-8.1 1.4-8.1 4.1 0 2.1 1.6 3.2 3.6 3.9 14.4 4.8 16.7 11.9 20.6 22.5l35 92.7c3.4 9.6 6.9 15.8 8.7 15.8 3 0 11.2-20.4 15.1-31.2l21.1-58.3 27.72 73.6c3.45 9.6 6.9 15.8 8.7 15.8 3 0 11.3-20.4 15.2-31.2l28.42-78.5c3.65-10.38 7.8-17.9 18.33-21.38 2.1-.7 3.9-1.87 3.9-3.9 0-2.78-4.6-4.16-8-4.16-3.43 0-11.23 1.13-14.66 1.13-3.5 0-13.1-1.18-16.54-1.18-3.4 0-8 1.4-8 4.13 0 2.03 1.8 3.4 3.9 4.1zm77.06-20.65c-6.9 0-12.6 5.5-12.6 12.38 0 7.1 5.5 12.84 12.6 12.84s12.6-5.73 12.6-12.84c0-6.88-5.75-12.38-12.6-12.38zm-8.28 78.65v44.5c0 5.8-2.54 12.9-8.73 14.7-6.2 1.88-10.1 3.7-10.1 6s2.1 4.6 8.05 4.6c5.04 0 15.82-1.4 20.4-1.4 3.68 0 15.14 1.4 20.2 1.4 5.95 0 7.8-2.3 7.8-4.6s-3.68-4.12-9.88-5.95c-6.2-1.84-8.7-8.95-8.7-14.7v-69c0-4.6 0-6.65-2.77-6.65-2.3 0-21.32 7.55-23.84 8.93-3 1.38-6.6 3.2-6.6 5.73 0 2.55 2.3 3.9 4.8 4.84 5.5 2.05 9.4 7.8 9.4 11.7zm143.86 44.1v-41.5c0-16.74-12.6-31.9-28.67-31.9-11.93 0-20.87 2.76-28.44 8.95-1.82 1.6-4.6 4.83-4.6 1.4V1772c0-4.37 0-6.43-2.72-6.43-2.3 0-21.1 7.56-23.8 8.94-3 1.4-6.6 3.2-6.6 5.8s2.3 3.9 4.8 4.9c5.5 2.1 9.4 7.8 9.4 11.7v44.5c0 5.8-2.5 12.9-8.7 14.7-6.2 1.9-8.9 3.7-8.9 6s.9 4.6 6.9 4.6c5.1 0 15.9-1.4 20.4-1.4 3.7 0 11.7 1.4 16.8 1.4 6 0 6.7-2.3 6.7-4.6s-2.5-4.1-8.7-5.9c-4.3-1.4-5.3-8.9-5.3-14.7l.3-36.7c0-17.4 9.2-25.2 22.5-25.2 11.9 0 20 13.3 20 26.8v35.1c0 5.8-1.1 13.6-5.3 14.7-6.2 1.9-8.9 3.7-8.9 6s1 4.6 6.9 4.6c5.1 0 12.4-1.4 17-1.4 3.7 0 15.2 1.4 20.2 1.4 6 0 6.2-2.3 6.2-4.6s-2.1-4.1-8.3-5.9c-6.2-1.8-8.7-9.2-8.7-15.1zm47.92-28.2c0-16.06 5.72-35.32 21.8-35.32 14.2 0 25.66 12.16 25.66 26.6v35.1c0 9.16-8.94 14.2-17.9 14.2-19.7 0-29.57-19.94-29.57-40.58zm63.74-102.74c-2.3 0-15.14 3.9-24.3 5.5-3.23.47-6.67 2.3-6.67 4.83 0 2.5 2.77 4.3 5.3 5.2 5.5 2 9.4 6.6 9.4 10.5v33.7c-.45 4.3-.9 5.5-2.97 3.7-3.2-3.2-10.55-6-17.9-6-28.88 0-47.7 28.2-47.7 56.9 0 23.4 18.6 43.5 41.98 43.5 9.2 0 18.1-3.7 23.4-11.3 1.6-2.3 2.3-2.1 2.77.2.7 3.4 1.4 6.4 2.1 8.7.3 1.1 1.4 3.2 3.3 3.2 3.5 0 26.2-5.5 30.3-7.6 1.9-.9 3-2.8 3-5.7 0-1.6-1.8-3.7-3-3.7-1.8 0-9.4 1.4-12.3 1.4-2.3 0-3.7-1.2-3.7-6.5V1716c0-4.36 0-6.2-2.7-6.2zm120 74.54v-38.54c0-2.97.9-4.8 7.1-4.8h27.27c11 0 16.74 3.67 18.6 7.57 2.04 4.6 5.5 8.7 8.23 8.7 2.8 0 3.7-3.2 3.7-5.94 0-2.5-1.14-15.2-2.06-18.8-.45-2.1-2.3-3.2-5.95-3.2-4.2 0-17.7 1.1-27.3 1.1h-65.8c-4.9 0-8.1 1.4-8.1 4.1 0 2 1.6 3.2 3.6 3.9 13 3.6 18.8 3.9 18.8 16.9v83.7c0 8.5-3 13.1-10.8 16.5-5.1 2.3-12.6 3.4-12.6 6.9 0 2.3 5 3.6 7.5 3.9 1.6 0 15.1-1.2 25.9-1.2 24.3 0 65.8 1.1 74.3 1.1 3.9 0 4.3-1 6.2-4.4 1.8-3 8.7-20 8.7-26.4 0-3.5-.9-5.8-3.2-5.8-2.1 0-5.1 1.8-6.2 4.3-6.7 14-9.6 21.3-27.3 21.3h-32c-6.7 0-8.7-3-8.7-8.9V1808c0-4.34 1.1-5.5 5.5-5.5H645c4.8 0 6.42 2.3 8.02 4.8 1.37 2.3 4.35 8.75 7.33 8.75 2.3 0 2.98-3.65 2.98-5.95 0-2.5-.2-9.63-.2-13.07 0-3.44.9-11.46.9-13.3 0-2.75-.45-4.6-2.5-4.6-2.53 0-4.6 3.45-7.1 5.74-4.15 3.9-6.67 6.4-14 6.4H620.7c-3.2 0-5.27-1.6-5.27-7.1zm183.5 56.4v-41.5c0-16.74-12.6-31.88-28.65-31.88-11.94 0-20.88 2.75-28.45 8.94-1.84 1.6-4.6 4.83-4.6 1.4V1772c0-4.37 0-6.43-2.74-6.43-2.3 0-21.1 7.56-23.87 8.94-3 1.4-6.7 3.2-6.7 5.8s2.3 3.9 4.8 4.9c5.5 2.1 9.4 7.8 9.4 11.7v44.5c0 5.8-2.5 12.9-8.7 14.7-6.2 1.9-9 3.7-9 6s.9 4.6 6.8 4.6c5 0 15.8-1.4 20.4-1.4 3.6 0 11.7 1.4 16.7 1.4 5.9 0 6.6-2.3 6.6-4.6s-2.5-4.1-8.7-5.9c-4.4-1.4-5.3-8.9-5.3-14.7l.2-36.7c0-17.4 9.2-25.2 22.5-25.2 11.9 0 19.9 13.3 19.9 26.9v35.1c0 5.8-1.2 13.6-5.3 14.7-6.2 1.8-9 3.7-9 6s.9 4.6 6.9 4.6c5 0 12.4-1.4 16.9-1.4 3.7 0 15.15 1.4 20.2 1.4 5.95 0 6.2-2.3 6.2-4.6s-2.1-4.1-8.27-5.9c-6.2-1.8-8.7-9.2-8.7-15.1zm58.94-73.38c-16.04 0-29.34 13.07-29.34 28.67 0 11.4 8.93 18.5 19.25 25.6l11 7.8c5.5 4.1 10.33 6.4 10.33 16.5 0 6.8-6.68 11.4-13.56 11.4-7.6 0-14.7-2.5-17.68-8.7-3.2-7.1-7.8-9.2-10.1-9.2s-2.5 3.4-2.5 7.3c0 3.4 2.72 11.4 3.9 14.4 1.1 3 2.26 3.2 5.7 4.6 2.3.9 8.7 1.8 15.14 1.8 18.8 0 34.63-14 34.63-33.5 0-8-4.8-13.3-11-18.3l-18.8-14.2c-5.2-3.7-9.8-7.6-9.8-14 0-5.8 4.9-9.9 10.6-9.9 7.1 0 13.8 3.9 15.6 9.2 1.2 4.6 4.6 5.7 6.9 5.7 2.8 0 2.8-2.3 2.8-5.1 0-2.1-.4-8.7-1.1-11.3-.7-2.3-1.1-3-2.5-3.7-7.3-3-12.1-5.5-19.2-5.5zm60.04 26.37c0-4.6 9.4-15.9 23.16-15.9 6.68 0 13.55 4.6 13.55 11.2 0 3.2-1.2 7.1-3.5 7.1h-30.2c-2.8 0-3-.9-3-2.5zm56.65-2.6c0-11.7-14.7-23.9-30.28-23.9-28 0-49.55 21.5-49.55 49.7 0 25.9 14.2 50.6 39.66 50.6 22.46 0 35.76-11 35.76-17.7 0-2.3-1.15-3.2-3.44-3.2-2.3 0-12.38 5.3-23.85 5.3-18.1 0-28.9-18.8-28.9-36.2 0-3.9 0-4.4.93-6.9.7-1.9 1.14-2.3 4.35-2.3h48.4c6 0 6.9-9.4 6.9-15.6zm104-8.7c-.45 0-.9-.3-1.6-1.2-4.8-7.8-13.52-14-23.6-14-11.94 0-20.88 2.7-28.45 8.9-1.86 1.6-4.6 4.8-4.6 1.4v-5.7c0-4.4 0-6.4-2.77-6.4-2.3 0-21.3 7.5-23.8 8.9-3 1.4-6.6 3.2-6.6 5.7s2.3 3.9 4.8 4.8c5.5 2 9.4 7.8 9.4 11.7v44.5c0 5.7-2.5 12.8-8.7 14.6-6.2 1.8-8.9 3.7-8.9 5.9 0 2.3 1 4.6 6.9 4.6 5.1 0 15.8-1.4 20.4-1.4 3.7 0 11.7 1.4 16.8 1.4 6 0 6.6-2.3 6.6-4.6s-2.5-4.2-8.7-6c-4.3-1.4-5.3-9-5.3-14.7l.3-36.7c0-17.4 9.2-25.2 22.5-25.2 12 0 20 13.3 20 26.8v35.1c0 5.7-1.1 13.5-5.3 14.7-6.2 1.8-8.9 3.7-8.9 6s.9 4.6 6.9 4.6c5 0 12.6-1.4 17-1.4 3.7 0 11.7 1.4 16.7 1.4 6 0 6.7-2.3 6.7-4.6s-2.5-4.2-8.7-6c-4.4-1.4-5.3-9-5.3-14.7v-36.7c0-16.3 9.2-25.2 22.7-25.2 11.9 0 20 13.3 20 26.8v35.1c0 5.7-1.12 13.5-5.25 14.7-6.2 1.8-8.92 3.7-8.92 6s.9 4.6 6.9 4.6c5.1 0 12.4-1.4 17-1.4 3.7 0 15.18 1.4 20.2 1.4 6 0 6.2-2.3 6.2-4.6s-2.1-4.2-8.23-6c-6.2-1.8-8.7-9.2-8.7-15.1V1799c0-16.74-12.6-31.9-28.7-31.9-11.9 0-20.9 2.76-28.4 8.95-4.4 3.7-6.9 6.2-8.06 6.2zm124.2 7.3c0-1.6 5.72-10.6 19.02-10.6 20.86 0 31.64 21.7 31.64 42.6 0 18.5-7.6 34.8-24.3 34.8-17.7 0-26.4-8.1-26.4-19.3zm-19.05-53.7v118.3c0 3.4 15.34 13.3 38.3 13.3 28.86 0 52.5-24.6 52.5-53.2 0-23-17.2-47.3-40.6-47.3-12.6 0-22.48 4.3-26.38 7.1-3.44 2.5-4.8 2.1-4.8-1.2V1716c0-4.6-.24-6.42-3-6.42-2.3 0-14.67 3.9-23.84 5.5-3.2.5-6.66 2.3-6.66 4.84 0 2.5 2.75 4.34 5.27 5.26 5.5 2.1 9.17 6.47 9.17 10.8zm118.1-.2v105.2c0 5.7-2.53 12.8-8.7 14.7-6.2 1.8-10.1 3.7-10.1 5.9 0 2.3 2.05 4.6 8.02 4.6 5.04 0 15.82-1.4 20.4-1.4 3.67 0 15.14 1.4 20.2 1.4 5.95 0 7.78-2.3 7.78-4.6s-3.65-4.1-9.84-6c-6.2-1.9-8.7-9-8.7-14.7v-125c0-4.4 0-6.2-2.75-6.2-2.3 0-14.7 3.9-23.9 5.5-3.2.4-6.7 2.3-6.7 4.8s2.7 4.3 5.2 5.3c5.5 2 8.9 6.6 8.9 10.5zm69.34 57.8c0-4.6 9.4-15.9 23.15-15.9 6.67 0 13.55 4.6 13.55 11.2 0 3.2-1.13 7.1-3.42 7.1h-30.26c-2.74 0-2.97-.9-2.97-2.5zm56.63-2.6c0-11.7-14.7-23.9-30.3-23.9-27.98 0-49.53 21.5-49.53 49.7 0 25.9 14.2 50.7 39.67 50.7 22.4 0 35.7-11 35.7-17.7 0-2.3-1.2-3.2-3.5-3.2s-12.4 5.3-23.9 5.3c-18.1 0-28.9-18.8-28.9-36.2 0-3.9 0-4.4.9-6.9.7-1.9 1.1-2.3 4.3-2.3h48.4c5.9 0 6.8-9.4 6.8-15.6z"/></svg>