<svg xmlns="http://www.w3.org/2000/svg" width="1353.14" height="1886.26" version="1" viewBox="0 0 1014.85 1414.7"><path fill="#0e76bc" d="M554.4 8l-2 3c-2 2.5-.9 2.06-5 2h-3c.62 1.08 1.17 1.78 2.4 3.65 1.9 2.85 1.13 3.85.13 5.85 0 2-1.54 5.5-1.54 9.5 0 3-1 8-1 11-1 4-1 5-8 8-9 5-12 5-15 3s-3-3 0-7c3-5 3-11 0-13-3-3-6-3-8-1-2.2.45-4 3-4 3-.6 1.33-1.3 3.53 0 7 0 1 1 3 2 4 3 5 1 8-5 9-5 0-8 3-9 8 0 4-10 20-12 21-1 0-3 0-4-1l-2-1v1c0 2 11 23 14 28 1 1 1 6 1 12 0 8 0 11 2 14 3 5 3 5 0 7-4 2-4 5 0 10 1 2 1.3 3.3 2 5 .6 1.7 1 3 2 4 1 2 1 3-1 10-4 9-5 11-15 21-4 4-7 8-7 8l-3 3-4 2v2c.3 1.7.8 2.83 2 4h-3v3h-1c-3 0-5 3-5 6 1 2-1 4-4 3-2 0-4 0-6 2-2.3 1.26-3 1.6-3 4-.3 7.1-6.5 21.16-1 25l2 1c-1.5 3.08 1.7 13.4-5 12-4.1-.24-8-1.97-12-2v2c-.7 2.37.1 7.1-2 5h-2l-1 4c-1 2-2 4-3 5l-1 2 2 3c0 2 2 3 3 3h1v1c0 2-4 3-6 2h-2v2l2 6h-7l1 2c1 1 2 2 3 2h2v1l-2 2-1 1 2 4 2 5h5c7-1 12 2 11 7 0 1-1 3-2 3v7h3c.4 3.7.5 8.05.5 10.36-.1 26.64-.6 40.52-.6 63.64-.1 3.1-.7 5.65-1 7-.4 1.35-2 2-2 2s-.5.5 1 2 2 7-1 9c-1 1-3 2-4 2h-2v1l2 2c2 3 1 6-2 9-5 5-6 12-2 21l2 5h-4c-3-1-3-1-5 1s-5 4-7 5c-3 2-5 4-5 5s-1 2-2 3c-2 2-4 7-5 14-1 8-1 7 0 14 0 5 0 6-2 10-3 4-4 5-11 8-58.8 31.12-117.6 79.02-149.5 127l-8.5 12-6.5-2 .2 4.6c0 1.72-.8 3.42-1.97 6.13-14.35 36.5-21.63 80.4-25.8 114.27-1 7-2 14-2 15l-1 1-1-1c-1-1-2-1-2-1h-1v2c-.8 5.15-1.55 22-4 27l-1 5c-3.9 1.65-9.7-2-12-2h-3v10c0 8 1 11 2 12 0 1 1 3 1 4v5c0 5-3 7-7 6-2-1-4-1-5-1h-2v1c2.67 3.4 3.23 10.54 2 13-2 6.52-8.47 10.57-13 15-23 17-32 35-26 56 3.93 15.67 10.5 20.62 17 35 1.6 27.9 1.02 57.97 1 84-1 0-5 2-11 5l-9 3-1-1c0-1-3-1-5-1h-3v3c-5.15-.1-8.67 1.8-11 3l-5 2 1 2v3l-12 7c-10 6-22 15-24 18-1 1-3 1-5 1-5 0-7 1-11 7l-3 4 2 3c2 5 2 6-4 11-15.55 11.63-26.36 26.1-33 42-2 5-2 21 1 28 2 6 9 16 18 27 5 7 6 9 8 17 1 5 2 9 2 10-1 1-2 1-4 1h-3l1 2c1.04 5.1.52 14.03 4 18h1v3c-.95 31.17-1.9 64.94-4 95 0 2.8-.23 8.28-.53 14.7h947.6c-.4-32.6-2.84-65.03-3-97.7v-13c-.12-6.9 5.2-17.4 5-18l1-6h-7c.98-4.4 1.95-8.77 4-13 1-2 3-7 5-9 7.78-9.08 11.8-11.48 19-27 7.2-15.52-2.2-46.66-18-60-4-4-10-9-15-12-5-4-9-7-10-8-1-2-1-6 1-9l1-3-5-5c-4-4-6-5-9-5-4 0-6-1-11-5-9-6-21-13-29-17-6-3-7-4-7-6 0-3-1-3-9-7-7-4-9-4-13-3h-5l1-88c0-1 1-3 3-5 1-1 5-7 8-12 7-14 9-26 4-39-3-10-14-23-25-31l-9-10c-3-4-3-4-2-11-.1-4.2 0 0 3-11h-1s-12.9 2.1-16-5c-2-5-2-6 1-9 1-2 1-3 0-10 0-6 0-8 1-9l1-2h-6l-5 1c-3.8-5.8-5.92-17.5-6-23v-6h-3l-1-6-2-10c-5.07-43.4-15.86-89.94-32-125v-5h-1l-7 2c-1-4-18-31-26-41-32.76-39-76.25-76.13-119-95-13-5-13-5-15-14-1-9-1-16 1-19 2-2 1-2.4 0-6-.64-3.15-2-5.1-2-8h-3c-2 0-6-2-11-5s-10.5-6.5-11-7c-2.13-.88-2.74-2.12-2-4 .73-1.88 2-4 3-6 3-7 2-11-3-16-3-3-3-11-1-15 3.2-4.6-3.44-9.43-7-13 .1-29.5-.8-57.56-.5-88-.86-2.6.48-4.07 4.5-4 4 1 13-7 13-11v-2h-3l-3-1v-2c0-1 2-5 3-6s3-1 5-1c3 0 7-5 5-8-1-1-1-3 0-3-.46-3.46-1.4-5.8-3-9h-2v-3l-2-1c-6 1-11 1-13 0-2 0-3-2-4-4-2-4-2-4-1-6l1-2-1-1c-1-1-1-2-1-3s0-2-1-2l-1-1-2 4c-2 5-4 5-6 1-2.54-3.35 1.9-3.68 2-6v-2h2v-1c-1-3 2-11 5-14l2-3-1-2c-7.17-2.72-13.15-13.92-19-17l-2-1v-2h2v-2c0-2-2.1-4.4-3-4-5.5 2.47-3.36 3.8-9.05-4.2L540.4 192c-4-5.65-11-17-11-20 0-1-.77-3.08-1-5-.24-1.92-.55-1.17 0-3 1-1 1.8-2.94 2.35-4.56.54-1.62 1.64-4.44 2.64-5.44 3-2 2-6-1-9-2-2-4-4-4-5 0 0 1-1 2-3l1-3c-1-1-2-3-2-11 0-5 0-16-1-23-1-13-2-31-1-36 1-1 3-3 5-4s6-4 9-6 6-3 6-3h1l1-4V36c-1-4-1-7 0-7 1-1 1-2 1-3v-2l2.1-1.3s1.4.62 2.4 1.62l2.4 1.68-.2-3.07c-.2-2.38-.9-2.5 1.4-4.04l2.8-1.9-3.1-1.5c-2.86-1.4-3.16-1.8-3.7-5.6zm-59 72h1v12c0 6 0 12-1 14l-1 3-4-8c-3-5-5-9-5-11 1-2 4-6 7-8zm5.36 375.9h19.05c16.6 54.42 55.9 113.3 110 157.33 165.9 135.14 195.4 331.6 13 488.35-7.4.33-11.62-4.7-9-14.4 102.8-93.47 126.7-195.8 88.94-269.72-37.32-73-106.6-123.27-202.77-173.7v548.7c-.4 78.8-71.6 155.38-169.3 155.38-64.7 0-106.74-31.13-106.74-93.57 0-81.65 78.98-155.86 169.3-155.86 39.28 0 69.57 12.4 87.7 34.7z"/></svg>